<?xml version="1.0" encoding="UTF-8"?>
<svg xmlns="http://www.w3.org/2000/svg" width="140" height="140" viewBox="-70 -124 140 140" class="absolute inset-0 w-full h-full" preserveAspectRatio="xMidYMax meet"><ellipse cx="0" cy="2" rx="44" ry="6" fill="rgba(0,0,0,.3)"></ellipse><ellipse cx="0" cy="-1" rx="58" ry="4" fill="rgba(255,236,194,.18)"></ellipse><rect x="-26" y="-8" width="52" height="8" fill="#9a8e72"></rect><g fill="#5b5346" opacity=".55"><rect x="-22" y="-6" width="6" height="3"></rect><rect x="-10" y="-3" width="7" height="3"></rect><rect x="6" y="-6" width="6" height="3"></rect><rect x="18" y="-3" width="5" height="3"></rect></g><path d="M-24,-8 L-22,-72 L22,-72 L24,-8 Z" fill="#e8d3a8"></path><path d="M-24,-8 L-22,-72 L-8,-72 L-12,-8 Z" fill="#b89f6f"></path><g stroke="#7a5c34" stroke-width="1" opacity=".4" fill="none"><path d="M-23.5,-22 L23.5,-22"></path><path d="M-23,-36 L23,-36"></path><path d="M-22.5,-50 L22.5,-50"></path><path d="M-22.2,-64 L22.2,-64"></path></g><path d="M-7,-8 L-7,-22 a7,7 0 0 1 14,0 L7,-8 Z" fill="#5a3a1f"></path><path d="M-5,-8 L-5,-20 a5,5 0 0 1 10,0 L5,-8 Z" fill="#7a5c34"></path><circle cx="3" cy="-13" r="1.2" fill="#e0a83a"></circle><rect x="-5" y="-36" width="10" height="9" fill="#3a2715"></rect><rect x="-4" y="-35" width="8" height="7" fill="#ffd98a" style="animation:flicker 3s ease-in-out infinite;transform-origin:0 -31px"></rect><line x1="0" y1="-35" x2="0" y2="-28" stroke="#3a2715" stroke-width=".6"></line><line x1="-4" y1="-31" x2="4" y2="-31" stroke="#3a2715" stroke-width=".6"></line><rect x="-3" y="-56" width="6" height="6" fill="#3a2715"></rect><rect x="-2.5" y="-55.5" width="5" height="5" fill="#ffd98a"></rect><g><rect x="-28" y="-74" width="56" height="2" fill="#5a3a1f"></rect><rect x="-28" y="-72" width="56" height="1" fill="#3a2715" opacity=".6"></rect><g stroke="#5a3a1f" stroke-width=".7"><line x1="-24" y1="-72" x2="-24" y2="-68"></line><line x1="-16" y1="-72" x2="-16" y2="-68"></line><line x1="-8" y1="-72" x2="-8" y2="-68"></line><line x1="0" y1="-72" x2="0" y2="-68"></line><line x1="8" y1="-72" x2="8" y2="-68"></line><line x1="16" y1="-72" x2="16" y2="-68"></line><line x1="24" y1="-72" x2="24" y2="-68"></line></g><line x1="-28" y1="-68" x2="28" y2="-68" stroke="#5a3a1f" stroke-width=".7"></line></g><defs><pattern id="mill2-tiles" patternUnits="userSpaceOnUse" width="14" height="6"><rect width="14" height="6" fill="#7c4a2e"></rect><path d="M0,5.5 Q3.5,3.5 7,5.5 T14,5.5" fill="none" stroke="rgba(0,0,0,.18)" stroke-width="1.2"></path><ellipse cx="3.5" cy="2.5" rx="4" ry="1.4" fill="rgba(255,255,255,.08)"></ellipse></pattern></defs><polygon points="-26,-74 0,-100 26,-74" fill="url(#mill2-tiles)"></polygon><polygon points="-26,-74 0,-100 -10,-74" fill="rgba(0,0,0,.32)"></polygon><rect x="-26" y="-74" width="52" height="3" fill="#3a160a"></rect><line x1="0" y1="-100" x2="0" y2="-108" stroke="#3a3530" stroke-width="1.4"></line><circle cx="0" cy="-108" r="1.6" fill="#bda268"></circle><g transform="translate(0 -82)"><circle cx="0" cy="0" r="3.5" fill="#3a2715"></circle><circle cx="0" cy="0" r="1.4" fill="#bda268"></circle><g style="animation:windmill 14s linear infinite;transform-origin:0 0"><g transform="rotate(0)"><rect x="-1" y="0" width="2" height="34" fill="#3a2715"></rect><path d="M-7,4 L-7,32 L0,30 L0,4 Z" fill="#f5ecd6" stroke="#3a2715" stroke-width=".7"></path><line x1="-4" y1="4" x2="-4" y2="32" stroke="#a99262" stroke-width=".5"></line><line x1="-7" y1="14" x2="0" y2="14" stroke="#a99262" stroke-width=".5"></line><line x1="-7" y1="22" x2="0" y2="22" stroke="#a99262" stroke-width=".5"></line></g><g transform="rotate(90)"><rect x="-1" y="0" width="2" height="34" fill="#3a2715"></rect><path d="M-7,4 L-7,32 L0,30 L0,4 Z" fill="#f5ecd6" stroke="#3a2715" stroke-width=".7"></path><line x1="-4" y1="4" x2="-4" y2="32" stroke="#a99262" stroke-width=".5"></line><line x1="-7" y1="14" x2="0" y2="14" stroke="#a99262" stroke-width=".5"></line><line x1="-7" y1="22" x2="0" y2="22" stroke="#a99262" stroke-width=".5"></line></g><g transform="rotate(180)"><rect x="-1" y="0" width="2" height="34" fill="#3a2715"></rect><path d="M-7,4 L-7,32 L0,30 L0,4 Z" fill="#f5ecd6" stroke="#3a2715" stroke-width=".7"></path><line x1="-4" y1="4" x2="-4" y2="32" stroke="#a99262" stroke-width=".5"></line><line x1="-7" y1="14" x2="0" y2="14" stroke="#a99262" stroke-width=".5"></line><line x1="-7" y1="22" x2="0" y2="22" stroke="#a99262" stroke-width=".5"></line></g><g transform="rotate(270)"><rect x="-1" y="0" width="2" height="34" fill="#3a2715"></rect><path d="M-7,4 L-7,32 L0,30 L0,4 Z" fill="#f5ecd6" stroke="#3a2715" stroke-width=".7"></path><line x1="-4" y1="4" x2="-4" y2="32" stroke="#a99262" stroke-width=".5"></line><line x1="-7" y1="14" x2="0" y2="14" stroke="#a99262" stroke-width=".5"></line><line x1="-7" y1="22" x2="0" y2="22" stroke="#a99262" stroke-width=".5"></line></g></g></g><g><g transform="translate(-40 -3)"><ellipse cx="0" cy="0" rx="7" ry="1.4" fill="rgba(0,0,0,.3)"></ellipse><path d="M-7,0 L-8,-10 Q-7,-13 -4,-13 L-2,-13 L-1,-15 L1,-15 L2,-13 L4,-13 Q7,-13 8,-10 L7,0 Z" fill="#fbf7eb" stroke="#a99262" stroke-width=".7"></path><path d="M-2,-13 Q0,-12 2,-13" stroke="#a99262" stroke-width=".7" fill="none"></path><path d="M-3,-7 L-2,-4 L-1,-6 L0,-4 L1,-7" stroke="#7a5c34" stroke-width=".5" fill="none"></path><g fill="#fbf7eb" opacity=".7"><circle cx="-44" cy="0" r=".8"></circle><circle cx="-40" cy="0" r=".8"></circle><circle cx="-36" cy="0" r=".8"></circle></g></g><g transform="translate(36 -2)"><ellipse cx="0" cy="0" rx="6" ry="1.2" fill="rgba(0,0,0,.3)"></ellipse><path d="M-6,0 L-7,-9 Q-6,-11 -3,-11 L-1,-11 L0,-12 L1,-11 L3,-11 Q6,-11 7,-9 L6,0 Z" fill="#fbf7eb" stroke="#a99262" stroke-width=".7"></path><path d="M-2,-11 Q0,-10 2,-11" stroke="#a99262" stroke-width=".7" fill="none"></path></g></g><g><circle cx="-12" cy="-78" r="1" fill="#fbf7eb" style="--px:-20px;animation:pollen 5s 0s ease-in-out infinite;transform-origin:-12px -78px"></circle><circle cx="-4" cy="-78" r="1" fill="#fbf7eb" style="--px:20px;animation:pollen 6s 0.6s ease-in-out infinite;transform-origin:-4px -78px"></circle><circle cx="4" cy="-78" r="1" fill="#fbf7eb" style="--px:-20px;animation:pollen 7s 1.2s ease-in-out infinite;transform-origin:4px -78px"></circle><circle cx="12" cy="-78" r="1" fill="#fbf7eb" style="--px:20px;animation:pollen 8s 1.8s ease-in-out infinite;transform-origin:12px -78px"></circle></g></svg>