<svg xmlns="http://www.w3.org/2000/svg" viewBox="0 0 100 100">
  <defs>
    <radialGradient id="bg" cx="50%" cy="38%" r="78%">
      <stop offset="0%" stop-color="#f6efe0"/>
      <stop offset="55%" stop-color="#ecdfc3"/>
      <stop offset="100%" stop-color="#d8c4a0"/>
    </radialGradient>
  </defs>
  <rect x="0" y="0" width="100" height="100" rx="20" fill="url(#bg)"/>
  <g transform="translate(50 50) scale(0.5946)">
  <ellipse cx="0" cy="6" rx="50" ry="46" fill="#ffb24a" opacity="0.5"/>
  <ellipse cx="0" cy="53" rx="40" ry="7" fill="rgba(60,40,20,0.16)"/>
  <rect x="-38" y="42" width="76" height="13" rx="6.5" fill="#6e4a2c" transform="rotate(-8)"/>
  <rect x="-38" y="42" width="76" height="13" rx="6.5" fill="#825b37" transform="rotate(9)"/>
  <path d="M -26,42 C -36,8 -20,-16 0,-56 C 20,-16 36,8 26,42 C 14,54 -14,54 -26,42 Z" fill="#e0631f"/>
  <path d="M -17,42 C -24,12 -12,-8 0,-38 C 12,-8 24,12 17,42 C 9,52 -9,52 -17,42 Z" fill="#ffaa2b"/>
  <path d="M -9,42 C -13,18 -6,2 0,-20 C 6,2 13,18 9,42 C 5,49 -5,49 -9,42 Z" fill="#ffe49a"/>
</g>
</svg>
