<?xml version="1.0" encoding="UTF-8"?>
<svg xmlns="http://www.w3.org/2000/svg" width="128" height="116" viewBox="-64 -100 128 116" class="absolute inset-0 w-full h-full" preserveAspectRatio="xMidYMax meet"><defs><pattern id="forge-slate" patternUnits="userSpaceOnUse" width="12" height="5"><rect width="12" height="5" fill="#5b5346"></rect><path d="M0,4.5 Q3,3 6,4.5 T12,4.5" fill="none" stroke="rgba(0,0,0,.22)" stroke-width="1"></path><ellipse cx="3" cy="2" rx="3.2" ry="1" fill="rgba(255,255,255,.06)"></ellipse></pattern></defs><ellipse cx="0" cy="2" rx="52" ry="6" fill="rgba(0,0,0,.32)"></ellipse><ellipse cx="0" cy="-1" rx="44" ry="4" fill="rgba(255,130,40,.14)"></ellipse><rect x="-44" y="-8" width="88" height="8" fill="#9a8e72"></rect><g fill="#5b5346" opacity=".55"><rect x="-40" y="-6" width="8" height="3"></rect><rect x="-24" y="-3" width="8" height="3"></rect><rect x="-6" y="-6" width="7" height="3"></rect><rect x="10" y="-3" width="8" height="3"></rect><rect x="26" y="-6" width="8" height="3"></rect><rect x="-38" y="-3" width="5" height="2"></rect></g><rect x="-34" y="-88" width="14" height="42" fill="#8a4a30"></rect><g stroke="#5a2a18" stroke-width=".5" opacity=".7"><line x1="-34" y1="-82" x2="-20" y2="-82"></line><line x1="-34" y1="-76" x2="-20" y2="-76"></line><line x1="-34" y1="-70" x2="-20" y2="-70"></line><line x1="-34" y1="-64" x2="-20" y2="-64"></line><line x1="-34" y1="-58" x2="-20" y2="-58"></line><line x1="-34" y1="-52" x2="-20" y2="-52"></line><line x1="-34" y1="-46" x2="-20" y2="-46"></line><line x1="-27" y1="-88" x2="-27" y2="-82"></line><line x1="-27" y1="-76" x2="-27" y2="-70"></line><line x1="-27" y1="-64" x2="-27" y2="-58"></line><line x1="-27" y1="-52" x2="-27" y2="-46"></line></g><rect x="-36" y="-90" width="18" height="4" fill="#5a2a18"></rect><rect x="18" y="-74" width="12" height="28" fill="#8a4a30"></rect><g stroke="#5a2a18" stroke-width=".5" opacity=".7"><line x1="18" y1="-68" x2="30" y2="-68"></line><line x1="18" y1="-62" x2="30" y2="-62"></line><line x1="18" y1="-56" x2="30" y2="-56"></line><line x1="18" y1="-50" x2="30" y2="-50"></line><line x1="24" y1="-74" x2="24" y2="-68"></line><line x1="24" y1="-62" x2="24" y2="-56"></line></g><rect x="16" y="-76" width="16" height="3" fill="#5a2a18"></rect><rect x="-42" y="-46" width="84" height="38" fill="#8a4a30"></rect><rect x="-42" y="-46" width="16" height="38" fill="#5a2a18" opacity=".55"></rect><g stroke="#5a2a18" stroke-width=".6" opacity=".5"><line x1="-42" y1="-40" x2="42" y2="-40"></line><line x1="-42" y1="-34" x2="42" y2="-34"></line><line x1="-42" y1="-28" x2="42" y2="-28"></line><line x1="-42" y1="-22" x2="42" y2="-22"></line><line x1="-42" y1="-16" x2="42" y2="-16"></line></g><g stroke="#5a2a18" stroke-width=".4" opacity=".35"><line x1="-36" y1="-46" x2="-36" y2="-40"></line><line x1="-24" y1="-46" x2="-24" y2="-40"></line><line x1="-12" y1="-46" x2="-12" y2="-40"></line><line x1="0" y1="-46" x2="0" y2="-40"></line><line x1="12" y1="-46" x2="12" y2="-40"></line><line x1="24" y1="-46" x2="24" y2="-40"></line><line x1="36" y1="-46" x2="36" y2="-40"></line><line x1="-36" y1="-34" x2="-36" y2="-28"></line><line x1="-24" y1="-34" x2="-24" y2="-28"></line><line x1="-12" y1="-34" x2="-12" y2="-28"></line><line x1="0" y1="-34" x2="0" y2="-28"></line><line x1="12" y1="-34" x2="12" y2="-28"></line><line x1="24" y1="-34" x2="24" y2="-28"></line><line x1="36" y1="-34" x2="36" y2="-28"></line><line x1="-36" y1="-22" x2="-36" y2="-16"></line><line x1="-24" y1="-22" x2="-24" y2="-16"></line><line x1="-12" y1="-22" x2="-12" y2="-16"></line><line x1="0" y1="-22" x2="0" y2="-16"></line><line x1="12" y1="-22" x2="12" y2="-16"></line><line x1="24" y1="-22" x2="24" y2="-16"></line><line x1="36" y1="-22" x2="36" y2="-16"></line><line x1="-30" y1="-40" x2="-30" y2="-34"></line><line x1="-18" y1="-40" x2="-18" y2="-34"></line><line x1="-6" y1="-40" x2="-6" y2="-34"></line><line x1="6" y1="-40" x2="6" y2="-34"></line><line x1="18" y1="-40" x2="18" y2="-34"></line><line x1="30" y1="-40" x2="30" y2="-34"></line><line x1="-30" y1="-28" x2="-30" y2="-22"></line><line x1="-18" y1="-28" x2="-18" y2="-22"></line><line x1="-6" y1="-28" x2="-6" y2="-22"></line><line x1="6" y1="-28" x2="6" y2="-22"></line><line x1="18" y1="-28" x2="18" y2="-22"></line><line x1="30" y1="-28" x2="30" y2="-22"></line><line x1="-30" y1="-16" x2="-30" y2="-10"></line><line x1="-18" y1="-16" x2="-18" y2="-10"></line><line x1="-6" y1="-16" x2="-6" y2="-10"></line><line x1="6" y1="-16" x2="6" y2="-10"></line><line x1="18" y1="-16" x2="18" y2="-10"></line><line x1="30" y1="-16" x2="30" y2="-10"></line></g><rect x="-42" y="-46" width="84" height="3" fill="#7a5c34"></rect><polygon points="-46,-46 0,-64 46,-46" fill="url(#forge-slate)"></polygon><polygon points="-46,-46 0,-64 -24,-46" fill="rgba(0,0,0,.28)"></polygon><rect x="-46" y="-46" width="92" height="3" fill="#3a160a"></rect><line x1="-12" y1="-64" x2="12" y2="-64" stroke="#f5ecd6" stroke-width="2"></line><path d="M-18,-8 L-18,-32 a18,18 0 0 1 36,0 L18,-8 Z" fill="#5a2a18"></path><path d="M-15,-8 L-15,-30 a15,15 0 0 1 30,0 L15,-8 Z" fill="#1a0a00"></path><ellipse cx="0" cy="-14" rx="14" ry="9" fill="#ff8040" opacity=".7" style="animation:flicker 2.2s ease-in-out infinite;transform-origin:0px -14px"></ellipse><g style="animation:flicker 1.6s ease-in-out infinite;transform-origin:0px -18px"><path d="M-10,-8 Q-6,-20 0,-14 Q6,-20 10,-8 Z" fill="#c96442"></path></g><g style="animation:flicker 1.1s 0.2s ease-in-out infinite;transform-origin:0px -20px"><path d="M-6,-8 Q-3,-18 0,-14 Q3,-18 6,-8 Z" fill="#ffb14a"></path></g><path d="M-18,-32 a18,18 0 0 1 36,0" fill="none" stroke="#5a2a18" stroke-width="2.5"></path><ellipse cx="0" cy="-32" rx="4" ry="2.5" fill="#9a8e72"></ellipse><rect x="-38" y="-36" width="14" height="11" rx="1" fill="#1a1410"></rect><rect x="-37" y="-35" width="12" height="9" fill="#ffd86b" style="animation:flicker 3s ease-in-out infinite;transform-origin:-31px -30px"></rect><line x1="-31" y1="-35" x2="-31" y2="-26" stroke="#1a1410" stroke-width=".7"></line><line x1="-37" y1="-30" x2="-25" y2="-30" stroke="#1a1410" stroke-width=".7"></line><rect x="24" y="-36" width="14" height="11" rx="1" fill="#1a1410"></rect><rect x="25" y="-35" width="12" height="9" fill="#ffd86b" style="animation:flicker 2.6s 0.4s ease-in-out infinite;transform-origin:31px -30px"></rect><line x1="31" y1="-35" x2="31" y2="-26" stroke="#1a1410" stroke-width=".7"></line><line x1="25" y1="-30" x2="37" y2="-30" stroke="#1a1410" stroke-width=".7"></line><g><g transform="translate(-27 -90) scale(1.1)"><circle cx="0" cy="0" r="3" fill="#c8b898" style="--sx:-8px;animation:smoke 4.4s 0s ease-out infinite;transform-origin:0 0;opacity:0.85"></circle><circle cx="0" cy="0" r="4.2" fill="#c8b898" style="--sx:12px;animation:smoke 4.4s 1.1s ease-out infinite;transform-origin:0 0;opacity:0.85"></circle><circle cx="0" cy="0" r="5.4" fill="#c8b898" style="--sx:-8px;animation:smoke 4.4s 2.2s ease-out infinite;transform-origin:0 0;opacity:0.85"></circle><circle cx="0" cy="0" r="6.6" fill="#c8b898" style="--sx:12px;animation:smoke 4.4s 3.3000000000000003s ease-out infinite;transform-origin:0 0;opacity:0.85"></circle></g><g transform="translate(-25 -90) scale(0.8)"><circle cx="0" cy="0" r="3" fill="#a89878" style="--sx:-8px;animation:smoke 3.6s 0s ease-out infinite;transform-origin:0 0;opacity:0.85"></circle><circle cx="0" cy="0" r="4.2" fill="#a89878" style="--sx:12px;animation:smoke 3.6s 1.1s ease-out infinite;transform-origin:0 0;opacity:0.85"></circle><circle cx="0" cy="0" r="5.4" fill="#a89878" style="--sx:-8px;animation:smoke 3.6s 2.2s ease-out infinite;transform-origin:0 0;opacity:0.85"></circle></g><g transform="translate(24 -76) scale(0.8)"><circle cx="0" cy="0" r="3" fill="#c8b898" style="--sx:-8px;animation:smoke 3.8s 0s ease-out infinite;transform-origin:0 0;opacity:0.85"></circle><circle cx="0" cy="0" r="4.2" fill="#c8b898" style="--sx:12px;animation:smoke 3.8s 1.1s ease-out infinite;transform-origin:0 0;opacity:0.85"></circle><circle cx="0" cy="0" r="5.4" fill="#c8b898" style="--sx:-8px;animation:smoke 3.8s 2.2s ease-out infinite;transform-origin:0 0;opacity:0.85"></circle></g><g transform="translate(22 -76) scale(0.6)"><circle cx="0" cy="0" r="3" fill="#a89878" style="--sx:-8px;animation:smoke 4.6s 0s ease-out infinite;transform-origin:0 0;opacity:0.85"></circle><circle cx="0" cy="0" r="4.2" fill="#a89878" style="--sx:12px;animation:smoke 4.6s 1.1s ease-out infinite;transform-origin:0 0;opacity:0.85"></circle></g><circle cx="-4" cy="-32" r=".7" fill="#ffb14a" style="--sx:-6px;animation:ember 2.8s 0s ease-out infinite;transform-origin:-4px -32px;opacity:0.9"></circle><circle cx="4" cy="-32" r=".7" fill="#ffb14a" style="--sx:6px;animation:ember 2.8s 0.6s ease-out infinite;transform-origin:4px -32px;opacity:0.9"></circle><circle cx="-4" cy="-32" r=".7" fill="#ffb14a" style="--sx:-6px;animation:ember 2.8s 1.2s ease-out infinite;transform-origin:-4px -32px;opacity:0.9"></circle><circle cx="4" cy="-32" r=".7" fill="#ffb14a" style="--sx:6px;animation:ember 2.8s 1.8s ease-out infinite;transform-origin:4px -32px;opacity:0.9"></circle><circle cx="-4" cy="-32" r=".7" fill="#ffb14a" style="--sx:-6px;animation:ember 2.8s 2.4s ease-out infinite;transform-origin:-4px -32px;opacity:0.9"></circle></g><g transform="translate(34 -2)"><ellipse cx="0" cy="0" rx="7" ry="1.8" fill="rgba(0,0,0,.3)"></ellipse><rect x="-5" y="-6" width="10" height="6" fill="#7a5c34"></rect><ellipse cx="0" cy="-6" rx="5" ry="1.4" fill="#5a3a1f"></ellipse><rect x="-6" y="-14" width="12" height="6" rx=".8" fill="#5b5346"></rect><path d="M6,-11 L13,-10 Q14,-9 13,-8 L6,-8 Z" fill="#3a3530"></path><rect x="-7" y="-9" width="14" height="2" rx=".4" fill="#3a3530"></rect><line x1="-4" y1="-13.5" x2="2" y2="-13.5" stroke="#9a9a9a" stroke-width=".6" opacity=".7"></line><g transform="translate(-16 -12) rotate(-30)"><rect x="-1" y="0" width="2" height="10" fill="#7a5c34"></rect><rect x="-3.5" y="-4" width="7" height="4" rx=".5" fill="#5b5346"></rect><rect x="-3.5" y="-5" width="7" height="1.5" fill="#3a3530"></rect></g></g><g transform="translate(-52 -24)"><rect x="-1" y="-18" width="2" height="18" fill="#3a2715"></rect><rect x="0" y="-16" width="5" height="1.4" fill="#5a3a1f"></rect><rect x="0" y="-10" width="5" height="1.4" fill="#5a3a1f"></rect><g transform="translate(5 -15)"><line x1="0" y1="0" x2="4" y2="6" stroke="#5b5346" stroke-width="1.2" stroke-linecap="round"></line><line x1="2" y1="0" x2="6" y2="6" stroke="#5b5346" stroke-width="1.2" stroke-linecap="round"></line></g><g transform="translate(5 -9)"><line x1="0" y1="0" x2="6" y2="7" stroke="#5b5346" stroke-width="1" stroke-linecap="round"></line><circle cx="6" cy="7" r="1" fill="#3a3530"></circle></g></g><g transform="translate(-52 -3)"><ellipse cx="0" cy="0" rx="8" ry="1.6" fill="rgba(0,0,0,.28)"></ellipse><path d="M-6,0 L-5,-8 L5,-8 L6,0 Z" fill="#5b5346"></path><ellipse cx="0" cy="-8" rx="5.5" ry="1.4" fill="#3a3530"></ellipse><path d="M-5,-8 a5,5 0 0 1 10,0" fill="none" stroke="#3a3530" stroke-width="1.2"></path><g fill="#1a1410"><circle cx="-2" cy="-9.5" r="1"></circle><circle cx="1" cy="-10" r="1.2"></circle><circle cx="3" cy="-9" r=".9"></circle></g></g><g transform="translate(-30 -16)"><ellipse cx="10" cy="0" rx="5" ry="3" fill="#ff8040" opacity=".35" style="animation:v2pulse 2.4s ease-in-out infinite;transform-origin:10px 0px"></ellipse><ellipse cx="0" cy="0" rx="6" ry="4" fill="#6a4a28"></ellipse><ellipse cx="0" cy="0" rx="4.5" ry="2.8" fill="#4a2e14"></ellipse><g stroke="#7a5c34" stroke-width=".6" opacity=".6"><line x1="-3" y1="-3" x2="-3" y2="3"></line><line x1="0" y1="-3.5" x2="0" y2="3.5"></line><line x1="3" y1="-3" x2="3" y2="3"></line></g><rect x="5" y="-1.2" width="5" height="2.4" rx=".8" fill="#5b5346"></rect></g></svg>