<?xml version="1.0" encoding="UTF-8"?>
<svg xmlns="http://www.w3.org/2000/svg" width="100" height="104" viewBox="-50 -88 100 104" class="absolute inset-0 w-full h-full" preserveAspectRatio="xMidYMax meet"><defs><pattern id="hearth-tiles" patternUnits="userSpaceOnUse" width="14" height="6"><rect width="14" height="6" fill="#b6422c"></rect><path d="M0,5.5 Q3.5,3.5 7,5.5 T14,5.5" fill="none" stroke="rgba(0,0,0,.18)" stroke-width="1.2"></path><ellipse cx="3.5" cy="2.5" rx="4" ry="1.4" fill="rgba(255,255,255,.08)"></ellipse></pattern><pattern id="hearth-stone" patternUnits="userSpaceOnUse" width="16" height="8"><rect width="16" height="8" fill="#9a8e72"></rect><rect x="0" y="0" width="9" height="3.5" fill="none" stroke="#5b5346" stroke-width=".5" opacity=".4"></rect><rect x="10" y="0" width="6" height="3.5" fill="none" stroke="#5b5346" stroke-width=".5" opacity=".4"></rect><rect x="0" y="4" width="5" height="3.5" fill="none" stroke="#5b5346" stroke-width=".5" opacity=".4"></rect><rect x="6" y="4" width="10" height="3.5" fill="none" stroke="#5b5346" stroke-width=".5" opacity=".4"></rect></pattern></defs><ellipse cx="0" cy="2" rx="46" ry="5.5" fill="rgba(0,0,0,.32)"></ellipse><ellipse cx="0" cy="0" rx="38" ry="3.5" fill="rgba(220,160,70,.14)"></ellipse><rect x="-40" y="-8" width="80" height="8" fill="#9a8e72"></rect><g fill="#5b5346" opacity=".52"><rect x="-36" y="-6" width="10" height="3"></rect><rect x="-20" y="-3" width="9" height="3"></rect><rect x="-3" y="-6" width="7" height="3"></rect><rect x="10" y="-3" width="8" height="3"></rect><rect x="24" y="-6" width="9" height="3"></rect><rect x="-30" y="-3" width="6" height="2"></rect><rect x="16" y="-6" width="5" height="2"></rect></g><rect x="14" y="-85" width="16" height="50" fill="#8a4a30"></rect><g stroke="#5a2a18" stroke-width=".5" opacity=".6"><line x1="14" y1="-80" x2="30" y2="-80"></line><line x1="14" y1="-74" x2="30" y2="-74"></line><line x1="14" y1="-68" x2="30" y2="-68"></line><line x1="14" y1="-62" x2="30" y2="-62"></line><line x1="14" y1="-56" x2="30" y2="-56"></line><line x1="14" y1="-50" x2="30" y2="-50"></line><line x1="14" y1="-44" x2="30" y2="-44"></line><line x1="22" y1="-85" x2="22" y2="-35"></line></g><rect x="12" y="-87" width="20" height="4" fill="#5a2a18"></rect><rect x="-38" y="-60" width="76" height="52" fill="url(#hearth-stone)"></rect><rect x="-38" y="-60" width="12" height="52" fill="#5b5346" opacity=".30"></rect><rect x="-38" y="-60" width="76" height="3" fill="#7a5c34"></rect><polygon points="-44,-57 0,-78 44,-57" fill="url(#hearth-tiles)"></polygon><polygon points="-44,-57 0,-78 -17,-57" fill="rgba(0,0,0,.22)"></polygon><rect x="-44" y="-57" width="88" height="3.5" fill="#3a160a"></rect><line x1="-8" y1="-78" x2="8" y2="-78" stroke="#f5ecd6" stroke-width="2.5"></line><rect x="-4" y="-79" width="8" height="2" rx=".5" fill="#7a1d12"></rect><rect x="-33" y="-50" width="20" height="16" rx="1.5" fill="#1a1008"></rect><rect x="-32" y="-49" width="18" height="14" fill="#ffd86b" style="animation:flicker 3.2s 0.1s ease-in-out infinite;transform-origin:-23px -42px"></rect><line x1="-23" y1="-49" x2="-23" y2="-35" stroke="#1a1008" stroke-width=".8"></line><line x1="-32" y1="-42" x2="-14" y2="-42" stroke="#1a1008" stroke-width=".8"></line><rect x="-35" y="-35" width="24" height="2.5" rx=".5" fill="#7a5c34"></rect><rect x="13" y="-50" width="20" height="16" rx="1.5" fill="#1a1008"></rect><rect x="14" y="-49" width="18" height="14" fill="#ffd86b" style="animation:flicker 2.8s 0.5s ease-in-out infinite;transform-origin:23px -42px"></rect><line x1="23" y1="-49" x2="23" y2="-35" stroke="#1a1008" stroke-width=".8"></line><line x1="14" y1="-42" x2="32" y2="-42" stroke="#1a1008" stroke-width=".8"></line><rect x="11" y="-35" width="24" height="2.5" rx=".5" fill="#7a5c34"></rect><path d="M-11,-8 L-11,-32 a11,11 0 0 1 22,0 L11,-8 Z" fill="#5b5346"></path><path d="M-9,-8 L-9,-30 a9,9 0 0 1 18,0 L9,-8 Z" fill="#5a3a1f"></path><g stroke="#3a2010" stroke-width=".6" opacity=".5"><line x1="-9" y1="-22" x2="9" y2="-22"></line><line x1="-9" y1="-15" x2="9" y2="-15"></line></g><circle cx="5.5" cy="-18" r="2.2" fill="none" stroke="#2a2a2a" stroke-width="1.2"></circle><circle cx="5.5" cy="-18" r=".8" fill="#3a3a3a"></circle><ellipse cx="0" cy="-30" rx="3" ry="1.8" fill="#9a8e72"></ellipse><g fill="#5b5346" opacity=".5"><rect x="-38" y="-57" width="5" height="5"></rect><rect x="-38" y="-50" width="4" height="4"></rect><rect x="-38" y="-42" width="5" height="4"></rect><rect x="-38" y="-34" width="4" height="4"></rect><rect x="33" y="-57" width="5" height="5"></rect><rect x="34" y="-50" width="4" height="4"></rect><rect x="33" y="-42" width="5" height="4"></rect><rect x="34" y="-34" width="4" height="4"></rect></g><g fill="#9a8e72" opacity=".65"><ellipse cx="0" cy="-1" rx="6" ry="3.5"></ellipse><ellipse cx="0" cy="5" rx="7" ry="3"></ellipse><ellipse cx="0" cy="10" rx="6" ry="2.5"></ellipse></g><g><g style="animation:wiggle 2.8s ease-in-out infinite;transform-origin:-32px -4px"><ellipse cx="-32" cy="-8" rx="6" ry="5" fill="#5a7a28"></ellipse><ellipse cx="-32" cy="-9" rx="5" ry="4" fill="#7a9a38"></ellipse><circle cx="-34" cy="-11" r="1" fill="#f0d040"></circle><circle cx="-30" cy="-12" r=".9" fill="#f8e060"></circle><circle cx="-32" cy="-13" r="1.1" fill="#f0d040"></circle></g><g style="animation:wiggle 3.2s 0.5s ease-in-out infinite;transform-origin:32px -4px"><ellipse cx="32" cy="-8" rx="5.5" ry="5" fill="#4a6a20"></ellipse><ellipse cx="32" cy="-9" rx="4.5" ry="4" fill="#6a8a30"></ellipse><circle cx="30" cy="-12" r="1" fill="#e87090"></circle><circle cx="33" cy="-13" r=".9" fill="#f08090"></circle><circle cx="31" cy="-14" r="1.1" fill="#e87090"></circle></g><g style="animation:wiggle 2.5s 1.0s ease-in-out infinite;transform-origin:18px -2px"><ellipse cx="18" cy="-5" rx="3.5" ry="3" fill="#5a7a28"></ellipse><ellipse cx="18" cy="-6" rx="3" ry="2.5" fill="#6a9a30"></ellipse></g></g><g><rect x="-14" y="-3" width="28" height="3" rx=".5" fill="#9a8e72"></rect><rect x="-12" y="-1" width="24" height="1" fill="#5b5346" opacity=".3"></rect></g></svg>