<?xml version="1.0" encoding="UTF-8"?>
<svg xmlns="http://www.w3.org/2000/svg" width="120" height="124" viewBox="-60 -108 120 124" class="absolute inset-0 w-full h-full" preserveAspectRatio="xMidYMax meet"><defs><pattern id="inn-tiles" patternUnits="userSpaceOnUse" width="14" height="6"><rect width="14" height="6" fill="#b6422c"></rect><path d="M0,5.5 Q3.5,3.5 7,5.5 T14,5.5" fill="none" stroke="rgba(0,0,0,.18)" stroke-width="1.2"></path><ellipse cx="3.5" cy="2.5" rx="4" ry="1.4" fill="rgba(255,255,255,.08)"></ellipse></pattern></defs><ellipse cx="0" cy="2" rx="54" ry="6.5" fill="rgba(0,0,0,.32)"></ellipse><ellipse cx="0" cy="0" rx="44" ry="4" fill="rgba(255,180,80,.12)"></ellipse><rect x="-50" y="-8" width="100" height="8" fill="#9a8e72"></rect><g fill="#5b5346" opacity=".5"><rect x="-46" y="-6" width="10" height="3"></rect><rect x="-28" y="-3" width="9" height="3"></rect><rect x="-8" y="-6" width="8" height="3"></rect><rect x="10" y="-3" width="9" height="3"></rect><rect x="28" y="-6" width="10" height="3"></rect><rect x="-42" y="-3" width="6" height="2"></rect><rect x="18" y="-6" width="6" height="2"></rect></g><rect x="26" y="-96" width="13" height="46" fill="#8a4a30"></rect><g stroke="#5a2a18" stroke-width=".5" opacity=".65"><line x1="26" y1="-90" x2="39" y2="-90"></line><line x1="26" y1="-84" x2="39" y2="-84"></line><line x1="26" y1="-78" x2="39" y2="-78"></line><line x1="26" y1="-72" x2="39" y2="-72"></line><line x1="26" y1="-66" x2="39" y2="-66"></line><line x1="26" y1="-60" x2="39" y2="-60"></line><line x1="26" y1="-54" x2="39" y2="-54"></line><line x1="32.5" y1="-96" x2="32.5" y2="-50"></line></g><rect x="24" y="-98" width="17" height="4" fill="#5a2a18"></rect><rect x="-48" y="-72" width="96" height="40" fill="#e8d3a8"></rect><rect x="-48" y="-72" width="16" height="40" fill="#b89f6f" opacity=".45"></rect><g stroke="#5a3a1f" stroke-width="1.6" opacity=".7"><line x1="-48" y1="-72" x2="-48" y2="-32"></line><line x1="-24" y1="-72" x2="-24" y2="-32"></line><line x1="0" y1="-72" x2="0" y2="-32"></line><line x1="24" y1="-72" x2="24" y2="-32"></line><line x1="48" y1="-72" x2="48" y2="-32"></line></g><g stroke="#5a3a1f" stroke-width="1.4" opacity=".6"><line x1="-48" y1="-52" x2="48" y2="-52"></line><line x1="-48" y1="-72" x2="48" y2="-72"></line></g><g stroke="#5a3a1f" stroke-width=".9" opacity=".28"><line x1="-48" y1="-72" x2="-24" y2="-32"></line><line x1="-24" y1="-72" x2="-48" y2="-32"></line><line x1="24" y1="-72" x2="48" y2="-32"></line><line x1="48" y1="-72" x2="24" y2="-32"></line></g><rect x="-48" y="-72" width="96" height="3.5" fill="#7a5c34"></rect><polygon points="-54,-72 0,-100 54,-72" fill="url(#inn-tiles)"></polygon><polygon points="-54,-72 0,-100 -22,-72" fill="rgba(0,0,0,.22)"></polygon><rect x="-54" y="-72" width="108" height="3.5" fill="#3a160a"></rect><line x1="-10" y1="-100" x2="10" y2="-100" stroke="#f5ecd6" stroke-width="2.5"></line><rect x="-5" y="-101" width="10" height="2" rx=".5" fill="#7a1d12"></rect><g><rect x="-41" y="-66" width="18" height="12" rx="1.5" fill="#1a1008"></rect><rect x="-40" y="-65" width="16" height="10" fill="#ffd86b" style="animation:flicker 3.2s -1.28s ease-in-out infinite;transform-origin:-32px -60px"></rect><line x1="-32" y1="-65" x2="-32" y2="-55" stroke="#1a1008" stroke-width=".8"></line><line x1="-40" y1="-60" x2="-24" y2="-60" stroke="#1a1008" stroke-width=".8"></line><rect x="-42" y="-55" width="20" height="2.5" rx=".5" fill="#7a5c34"></rect></g><g><rect x="-9" y="-66" width="18" height="12" rx="1.5" fill="#1a1008"></rect><rect x="-8" y="-65" width="16" height="10" fill="#ffd86b" style="animation:flicker 3.2s 0s ease-in-out infinite;transform-origin:0px -60px"></rect><line x1="0" y1="-65" x2="0" y2="-55" stroke="#1a1008" stroke-width=".8"></line><line x1="-8" y1="-60" x2="8" y2="-60" stroke="#1a1008" stroke-width=".8"></line><rect x="-10" y="-55" width="20" height="2.5" rx=".5" fill="#7a5c34"></rect></g><g><rect x="23" y="-66" width="18" height="12" rx="1.5" fill="#1a1008"></rect><rect x="24" y="-65" width="16" height="10" fill="#ffd86b" style="animation:flicker 3.2s 1.28s ease-in-out infinite;transform-origin:32px -60px"></rect><line x1="32" y1="-65" x2="32" y2="-55" stroke="#1a1008" stroke-width=".8"></line><line x1="24" y1="-60" x2="40" y2="-60" stroke="#1a1008" stroke-width=".8"></line><rect x="22" y="-55" width="20" height="2.5" rx=".5" fill="#7a5c34"></rect></g><rect x="-48" y="-32" width="96" height="32" fill="#c4a87a"></rect><rect x="-48" y="-32" width="18" height="32" fill="rgba(0,0,0,.18)"></rect><rect x="-50" y="-32" width="100" height="4" fill="#7a5c34"></rect><g stroke="#5a3a1f" stroke-width="2.2" opacity=".75"><line x1="-48" y1="-32" x2="-48" y2="0"></line><line x1="48" y1="-32" x2="48" y2="0"></line></g><rect x="-42" y="-26" width="16" height="14" rx="1.5" fill="#1a1008"></rect><rect x="-41" y="-25" width="14" height="12" fill="#ffd86b" style="animation:flicker 2.8s 0.2s ease-in-out infinite;transform-origin:-34px -19px"></rect><line x1="-34" y1="-25" x2="-34" y2="-13" stroke="#1a1008" stroke-width=".8"></line><line x1="-41" y1="-19" x2="-27" y2="-19" stroke="#1a1008" stroke-width=".8"></line><rect x="-43" y="-13" width="18" height="2.5" rx=".5" fill="#7a5c34"></rect><rect x="26" y="-26" width="16" height="14" rx="1.5" fill="#1a1008"></rect><rect x="27" y="-25" width="14" height="12" fill="#ffd86b" style="animation:flicker 3.6s 0.6s ease-in-out infinite;transform-origin:34px -19px"></rect><line x1="34" y1="-25" x2="34" y2="-13" stroke="#1a1008" stroke-width=".8"></line><line x1="27" y1="-19" x2="41" y2="-19" stroke="#1a1008" stroke-width=".8"></line><rect x="25" y="-13" width="18" height="2.5" rx=".5" fill="#7a5c34"></rect><path d="M-18,-8 L-18,-28 a18,18 0 0 1 36,0 L18,-8 Z" fill="#7a5c34"></path><path d="M-16,-8 L-16,-27 a16,16 0 0 1 32,0 L16,-8 Z" fill="#2a1a0a"></path><ellipse cx="0" cy="-14" rx="14" ry="8" fill="#ff8040" opacity=".3" style="animation:flicker 3s ease-in-out infinite;transform-origin:0px -14px"></ellipse><rect x="-16" y="-28" width="15" height="20" fill="#4a2e14"></rect><rect x="1" y="-28" width="15" height="20" fill="#3a2010"></rect><line x1="0" y1="-28" x2="0" y2="-8" stroke="#7a5c34" stroke-width="1.2"></line><circle cx="-2.5" cy="-17" r="1.4" fill="#e0a83a"></circle><circle cx="2.5" cy="-17" r="1.4" fill="#e0a83a"></circle><rect x="-14" y="-26" width="11" height="7" rx=".8" fill="none" stroke="#6a4a28" stroke-width=".7" opacity=".6"></rect><rect x="-14" y="-17" width="11" height="7" rx=".8" fill="none" stroke="#6a4a28" stroke-width=".7" opacity=".6"></rect><rect x="3" y="-26" width="11" height="7" rx=".8" fill="none" stroke="#6a4a28" stroke-width=".7" opacity=".6"></rect><rect x="3" y="-17" width="11" height="7" rx=".8" fill="none" stroke="#6a4a28" stroke-width=".7" opacity=".6"></rect><ellipse cx="0" cy="-28" rx="4" ry="2.5" fill="#9a8e72"></ellipse><g><g transform="translate(32.5 -98) scale(1)"><circle cx="0" cy="0" r="3" fill="#d4c8a8" style="--sx:-8px;animation:smoke 4.2s 0s ease-out infinite;transform-origin:0 0;opacity:0.85"></circle><circle cx="0" cy="0" r="4.2" fill="#d4c8a8" style="--sx:12px;animation:smoke 4.2s 1.1s ease-out infinite;transform-origin:0 0;opacity:0.85"></circle><circle cx="0" cy="0" r="5.4" fill="#d4c8a8" style="--sx:-8px;animation:smoke 4.2s 2.2s ease-out infinite;transform-origin:0 0;opacity:0.85"></circle><circle cx="0" cy="0" r="6.6" fill="#d4c8a8" style="--sx:12px;animation:smoke 4.2s 3.3000000000000003s ease-out infinite;transform-origin:0 0;opacity:0.85"></circle></g><g transform="translate(30 -98) scale(0.75)"><circle cx="0" cy="0" r="3" fill="#b8ac8c" style="--sx:-8px;animation:smoke 3.6s 0s ease-out infinite;transform-origin:0 0;opacity:0.85"></circle><circle cx="0" cy="0" r="4.2" fill="#b8ac8c" style="--sx:12px;animation:smoke 3.6s 1.1s ease-out infinite;transform-origin:0 0;opacity:0.85"></circle><circle cx="0" cy="0" r="5.4" fill="#b8ac8c" style="--sx:-8px;animation:smoke 3.6s 2.2s ease-out infinite;transform-origin:0 0;opacity:0.85"></circle></g></g><g transform="translate(26 -40)"><rect x="0" y="-2" width="10" height="1.8" fill="#5a3a1f"></rect><rect x="0" y="-2" width="1.8" height="10" fill="#5a3a1f"></rect><g style="animation:sway 3.2s ease-in-out infinite;transform-origin:10px 0px"><line x1="10" y1="0" x2="10" y2="3" stroke="#5a3a1f" stroke-width=".8"></line><rect x="5" y="3" width="16" height="10" rx="1.2" fill="#f0e0b0"></rect><rect x="5" y="3" width="16" height="10" rx="1.2" fill="none" stroke="#5a3a1f" stroke-width=".8"></rect><rect x="9" y="5.5" width="5" height="5" rx=".5" fill="#c87840"></rect><path d="M14,7 Q16,7 16,9 Q16,11 14,11" fill="none" stroke="#c87840" stroke-width=".8"></path><path d="M9,8 Q10,6.5 12.5,6.5 Q15,6.5 14,8" fill="rgba(255,255,255,.5)"></path></g></g><g><rect x="-22" y="-3" width="44" height="3" rx=".5" fill="#9a8e72"></rect><rect x="-20" y="-1" width="40" height="1" fill="#5b5346" opacity=".3"></rect></g></svg>