<?xml version="1.0" encoding="UTF-8"?>
<svg xmlns="http://www.w3.org/2000/svg" width="108" height="106" viewBox="-54 -90 108 106" class="absolute inset-0 w-full h-full" preserveAspectRatio="xMidYMax meet"><ellipse cx="0" cy="2" rx="46" ry="5.5" fill="rgba(0,0,0,.28)"></ellipse><ellipse cx="0" cy="0" rx="38" ry="4" fill="rgba(255,190,100,.16)"></ellipse><rect x="-40" y="-7" width="80" height="7" fill="#9a8e72"></rect><g fill="#5b5346" opacity=".5"><rect x="-36" y="-5" width="8" height="2.5"></rect><rect x="-20" y="-2.5" width="7" height="2.5"></rect><rect x="-5" y="-5" width="7" height="2.5"></rect><rect x="10" y="-2.5" width="8" height="2.5"></rect><rect x="22" y="-5" width="8" height="2.5"></rect><rect x="-34" y="-2.5" width="5" height="2"></rect></g><rect x="-22" y="-76" width="12" height="30" fill="#b6422c"></rect><rect x="-22" y="-60" width="12" height="14" fill="#c8987a"></rect><rect x="-24" y="-78" width="16" height="4" fill="#7a1d12"></rect><g stroke="#7a1d12" stroke-width=".5" opacity=".55"><line x1="-22" y1="-72" x2="-10" y2="-72"></line><line x1="-22" y1="-66" x2="-10" y2="-66"></line><line x1="-22" y1="-60" x2="-10" y2="-60"></line><line x1="-22" y1="-54" x2="-10" y2="-54"></line><line x1="-22" y1="-50" x2="-10" y2="-50"></line><line x1="-16" y1="-76" x2="-16" y2="-60"></line></g><rect x="-38" y="-46" width="76" height="39" fill="#e8d3a8"></rect><rect x="-38" y="-46" width="14" height="39" fill="#b89f6f" opacity=".55"></rect><g stroke="#b89f6f" stroke-width=".5" opacity=".28"><line x1="-38" y1="-38" x2="38" y2="-38"></line><line x1="-38" y1="-28" x2="38" y2="-28"></line><line x1="-38" y1="-18" x2="38" y2="-18"></line></g><rect x="-38" y="-46" width="76" height="3" fill="#7a5c34"></rect><defs><pattern id="bakery-tiles" patternUnits="userSpaceOnUse" width="14" height="6"><rect width="14" height="6" fill="#b6422c"></rect><path d="M0,5.5 Q3.5,3.5 7,5.5 T14,5.5" fill="none" stroke="rgba(0,0,0,.18)" stroke-width="1.2"></path><ellipse cx="3.5" cy="2.5" rx="4" ry="1.4" fill="rgba(255,255,255,.08)"></ellipse></pattern></defs><polygon points="-44,-46 0,-72 44,-46" fill="url(#bakery-tiles)"></polygon><polygon points="-44,-46 0,-72 -18,-46" fill="rgba(0,0,0,.24)"></polygon><rect x="-44" y="-46" width="88" height="3.5" fill="#3a160a"></rect><line x1="-8" y1="-72" x2="8" y2="-72" stroke="#f5ecd6" stroke-width="2.5"></line><rect x="-4" y="-73" width="8" height="2" rx=".5" fill="#7a1d12"></rect><rect x="-30" y="-38" width="15" height="11" rx="1.5" fill="#1a1008"></rect><rect x="-29" y="-37" width="13" height="9" fill="#ffd86b" style="animation:flicker 3.4s ease-in-out infinite;transform-origin:-22px -32px"></rect><line x1="-22" y1="-37" x2="-22" y2="-28" stroke="#1a1008" stroke-width=".8"></line><line x1="-29" y1="-32" x2="-16" y2="-32" stroke="#1a1008" stroke-width=".8"></line><rect x="-31" y="-28" width="17" height="2.5" rx=".5" fill="#7a5c34"></rect><path d="M2,-7 L2,-28 a14,14 0 0 1 28,0 L30,-7 Z" fill="#7a1d12"></path><path d="M5,-7 L5,-26 a11,11 0 0 1 22,0 L27,-7 Z" fill="#1a0800"></path><ellipse cx="16" cy="-12" rx="10" ry="7" fill="#ff8040" opacity=".65" style="animation:flicker 2.4s ease-in-out infinite;transform-origin:16px -12px"></ellipse><g style="animation:flicker 1.8s ease-in-out infinite;transform-origin:16px -16px"><path d="M8,-7 Q12,-18 16,-12 Q20,-18 24,-7 Z" fill="#c96030"></path></g><g style="animation:flicker 1.2s 0.3s ease-in-out infinite;transform-origin:16px -18px"><path d="M11,-7 Q14,-16 16,-12 Q18,-16 21,-7 Z" fill="#ffb040"></path></g><path d="M2,-28 a14,14 0 0 1 28,0" fill="none" stroke="#7a1d12" stroke-width="2.5"></path><ellipse cx="16" cy="-28" rx="3.5" ry="2.2" fill="#9a8e72"></ellipse><path d="M-14,-7 L-14,-24 a8,8 0 0 1 16,0 L2,-7 Z" fill="#5a3a1f"></path><path d="M-12,-7 L-12,-22 a6,6 0 0 1 12,0 L0,-7 Z" fill="#3a2010"></path><circle cx="-2" cy="-15" r="1.4" fill="#e0a83a"></circle><g><g transform="translate(10 -32) scale(0.7)"><circle cx="0" cy="0" r="2.4" fill="#fbf7eb" style="--sx:-6px;animation:steam 2.4s 0s ease-out infinite;transform-origin:0 0;opacity:0.85"></circle><circle cx="0" cy="0" r="3.5999999999999996" fill="#fbf7eb" style="--sx:6px;animation:steam 2.4s 0.4s ease-out infinite;transform-origin:0 0;opacity:0.85"></circle><circle cx="0" cy="0" r="2.4" fill="#fbf7eb" style="--sx:-6px;animation:steam 2.4s 0.8s ease-out infinite;transform-origin:0 0;opacity:0.85"></circle></g><g transform="translate(18 -32) scale(0.6)"><circle cx="0" cy="0" r="2.4" fill="#fbf7eb" style="--sx:-6px;animation:steam 2.4s 0s ease-out infinite;transform-origin:0 0;opacity:0.85"></circle><circle cx="0" cy="0" r="3.5999999999999996" fill="#fbf7eb" style="--sx:6px;animation:steam 2.4s 0.4s ease-out infinite;transform-origin:0 0;opacity:0.85"></circle></g><g transform="translate(-16 -78) scale(1)"><circle cx="0" cy="0" r="3" fill="#e4d8c0" style="--sx:-8px;animation:smoke 4.6s 0s ease-out infinite;transform-origin:0 0;opacity:0.85"></circle><circle cx="0" cy="0" r="4.2" fill="#e4d8c0" style="--sx:12px;animation:smoke 4.6s 1.1s ease-out infinite;transform-origin:0 0;opacity:0.85"></circle><circle cx="0" cy="0" r="5.4" fill="#e4d8c0" style="--sx:-8px;animation:smoke 4.6s 2.2s ease-out infinite;transform-origin:0 0;opacity:0.85"></circle><circle cx="0" cy="0" r="6.6" fill="#e4d8c0" style="--sx:12px;animation:smoke 4.6s 3.3000000000000003s ease-out infinite;transform-origin:0 0;opacity:0.85"></circle></g><g transform="translate(-14 -78) scale(0.75)"><circle cx="0" cy="0" r="3" fill="#c8b898" style="--sx:-8px;animation:smoke 3.8s 0s ease-out infinite;transform-origin:0 0;opacity:0.85"></circle><circle cx="0" cy="0" r="4.2" fill="#c8b898" style="--sx:12px;animation:smoke 3.8s 1.1s ease-out infinite;transform-origin:0 0;opacity:0.85"></circle><circle cx="0" cy="0" r="5.4" fill="#c8b898" style="--sx:-8px;animation:smoke 3.8s 2.2s ease-out infinite;transform-origin:0 0;opacity:0.85"></circle></g></g><g><rect x="-2" y="-10" width="36" height="3" rx=".5" fill="#7a5c34"></rect><g transform="translate(4 -12)"><ellipse cx="0" cy="0" rx="4.5" ry="2.5" fill="#c87840"></ellipse><ellipse cx="0" cy="-1" rx="3.5" ry="1.6" fill="#e8a050"></ellipse><path d="M-2,-2 Q0,-4 2,-2" fill="none" stroke="#c87840" stroke-width=".6"></path></g><g transform="translate(14 -12)"><ellipse cx="0" cy="0" rx="4" ry="2.2" fill="#ba6c30"></ellipse><ellipse cx="0" cy="-0.8" rx="3" ry="1.4" fill="#d8944a"></ellipse><path d="M-1.5,-1.5 Q0,-3.5 1.5,-1.5" fill="none" stroke="#ba6c30" stroke-width=".5"></path></g><g transform="translate(23 -11)"><ellipse cx="0" cy="0" rx="3" ry="2" fill="#c07030"></ellipse><ellipse cx="0" cy="-0.6" rx="2.2" ry="1.3" fill="#d8904a"></ellipse></g><g fill="#f8f4ea" opacity=".6"><circle cx="8" cy="-8" r=".7"></circle><circle cx="12" cy="-7.5" r=".5"></circle><circle cx="19" cy="-8" r=".6"></circle><circle cx="27" cy="-7.5" r=".5"></circle></g></g><g transform="translate(-38 -35)"><rect x="0" y="-2" width="9" height="1.5" fill="#5a3a1f"></rect><rect x="0" y="-2" width="1.5" height="8" fill="#5a3a1f"></rect><rect x="4" y="0" width="14" height="9" rx="1" fill="#f5e8c0"></rect><rect x="4" y="0" width="14" height="9" rx="1" fill="none" stroke="#5a3a1f" stroke-width=".8"></rect><path d="M9,5 Q8,2 11,2 Q14,2 13,5 Q12,7 11,6 Q10,5 11,4 Q12,3 13,5" fill="none" stroke="#8a4a18" stroke-width="1" stroke-linecap="round"></path></g></svg>