<?xml version="1.0" encoding="UTF-8" standalone="no"?>
<!-- Generator: Adobe Illustrator 12.0.0, SVG Export Plug-In . SVG Version: 6.00 Build 51448)  -->
<svg
   xmlns:dc="http://purl.org/dc/elements/1.1/"
   xmlns:cc="http://web.resource.org/cc/"
   xmlns:rdf="http://www.w3.org/1999/02/22-rdf-syntax-ns#"
   xmlns:svg="http://www.w3.org/2000/svg"
   xmlns="http://www.w3.org/2000/svg"
   xmlns:sodipodi="http://sodipodi.sourceforge.net/DTD/sodipodi-0.dtd"
   xmlns:inkscape="http://www.inkscape.org/namespaces/inkscape"
   version="1.0"
   width="350"
   height="350"
   viewBox="0 0 595.275 595.275"
   style="overflow:visible;enable-background:new 0 0 595.275 595.275;"
   xml:space="preserve"
   id="svg2"
   sodipodi:version="0.32"
   inkscape:version="0.44.1"
   sodipodi:docname="Isometric Dimetric  oblique front projection.svg"
   sodipodi:docbase="C:\user\JuRa\engineering\Wiki"><metadata
   id="metadata191"><rdf:RDF><cc:Work
       rdf:about=""><dc:format>image/svg+xml</dc:format><dc:type
         rdf:resource="http://purl.org/dc/dcmitype/StillImage" /></cc:Work></rdf:RDF></metadata><defs
   id="defs189">
	
		
	
		
	
		
	
		

	
		
	
	
	
	
	
		
	
		
	
		
	
		
	
		
	
		
	
		
	
		
	
		
	
		
	
		
	
		
	
		
	
	
		
	
		
	
		
	
		
	
		
	
		
	
		
	
		
	
		
	
		
	
		
	
		
	
		
	
	
		
	
		
	
		
	
		
	
		
	
		
	
		
	
		
	
		
	
		
	
		
	
		
	
		
	

	
		
	
		
	
		
	
		
	
		
	
		
	
		
	
		
	
		
	
		
	
		
	
		
	
		
	
		
	
		
	
		
	
		
	
		
	
		
	
		
	
		
</defs><sodipodi:namedview
   inkscape:window-height="719"
   inkscape:window-width="1024"
   inkscape:pageshadow="2"
   inkscape:pageopacity="0.0"
   guidetolerance="10.0"
   gridtolerance="10.0"
   objecttolerance="10.0"
   borderopacity="1.0"
   bordercolor="#666666"
   pagecolor="#ffffff"
   id="base"
   inkscape:zoom="2"
   inkscape:cx="73.728673"
   inkscape:cy="194.86998"
   inkscape:window-x="-4"
   inkscape:window-y="-4"
   inkscape:current-layer="svg2"
   width="350px"
   height="350px" />

<line
   id="line14"
   y2="297.638"
   x2="505.73599"
   y1="297.638"
   x1="297.638"
   style="fill:none;stroke:black;stroke-width:1.19055;stroke-linecap:round;stroke-linejoin:round;stroke-miterlimit:100;stroke-dasharray:none" /><g
   id="g16">
		<path
   id="path18"
   d="M 269.685,276.249 C 269.685,277.745 269.311,279.029 268.565,280.102 C 267.818,281.175 266.918,281.711 265.862,281.711 L 262.039,281.711 C 261.001,281.711 260.105,281.181 259.35,280.121 C 258.594,279.061 258.217,277.77 258.217,276.248 L 258.217,259.86 C 258.217,258.339 258.588,257.048 259.33,255.988 C 260.072,254.928 260.975,254.398 262.04,254.398 L 265.863,254.398 C 266.927,254.398 267.831,254.932 268.573,255.998 C 269.315,257.064 269.686,258.352 269.686,259.86 L 269.686,276.249 L 269.685,276.249 z M 267.778,276.258 L 267.778,259.852 C 267.778,259.084 267.598,258.436 267.238,257.909 C 266.878,257.382 266.42,257.118 265.864,257.118 L 262.036,257.118 C 261.498,257.118 261.042,257.379 260.669,257.899 C 260.486,258.16 260.35,258.456 260.259,258.788 C 260.168,259.12 260.122,259.475 260.122,259.852 L 260.122,276.258 C 260.122,277.027 260.304,277.677 260.669,278.211 C 260.86,278.445 261.065,278.641 261.284,278.797 C 261.557,278.927 261.808,278.992 262.036,278.992 L 265.864,278.992 C 266.392,278.992 266.843,278.738 267.218,278.23 C 267.591,277.723 267.778,277.066 267.778,276.258 z " />
		<path
   id="path20"
   d="M 275.661,256.102 L 274.705,261.581 C 274.596,262.272 274.29,262.618 273.79,262.618 C 273.508,262.618 273.275,262.488 273.093,262.226 C 272.893,261.978 272.793,261.665 272.793,261.287 L 272.834,260.915 L 273.79,255.436 C 273.899,254.745 274.204,254.399 274.705,254.399 C 274.978,254.399 275.205,254.53 275.388,254.791 C 275.597,255.026 275.702,255.345 275.702,255.749 L 275.661,256.102 z " />
	</g><g
   id="g22">
		<path
   id="path24"
   d="M 31.981,270.255 L 35.469,277.678 L 35.606,278.087 L 35.606,278.457 C 35.606,278.808 35.506,279.126 35.306,279.412 L 35.156,279.587 L 34.952,279.723 L 34.598,279.801 C 34.334,279.801 34.08,279.6 33.835,279.198 L 30.825,272.739 L 27.815,279.18 C 27.624,279.594 27.361,279.801 27.025,279.801 C 26.825,279.801 26.603,279.665 26.358,279.392 C 26.149,279.12 26.045,278.795 26.045,278.419 C 26.045,278.186 26.099,277.932 26.209,277.66 L 29.67,270.244 L 26.182,262.828 L 26.045,262.419 L 26.045,262.049 C 26.045,261.699 26.14,261.387 26.331,261.115 C 26.521,260.843 26.762,260.706 27.053,260.706 C 27.316,260.706 27.571,260.907 27.816,261.309 L 30.826,267.768 L 33.836,261.327 C 34.026,260.913 34.29,260.706 34.626,260.706 C 34.816,260.706 35.043,260.842 35.307,261.114 C 35.507,261.399 35.607,261.723 35.607,262.086 C 35.607,262.319 35.552,262.572 35.443,262.844 L 31.981,270.255 z " />
		<path
   id="path26"
   d="M 41.577,254.192 L 40.621,259.671 C 40.512,260.362 40.206,260.708 39.706,260.708 C 39.424,260.708 39.191,260.578 39.009,260.316 C 38.809,260.068 38.709,259.755 38.709,259.377 L 38.75,259.005 L 39.706,253.526 C 39.815,252.835 40.12,252.489 40.621,252.489 C 40.894,252.489 41.121,252.62 41.304,252.881 C 41.513,253.116 41.618,253.435 41.618,253.839 L 41.577,254.192 z " />
	</g><g
   id="g28">
		<path
   id="path30"
   d="M 499.286,493.7 L 495.586,476.541 L 495.531,476.074 C 495.531,475.724 495.631,475.406 495.831,475.121 C 496.031,474.875 496.26,474.752 496.514,474.752 C 496.942,474.752 497.243,475.076 497.416,475.725 L 500.283,489.096 L 503.232,475.725 C 503.387,475.077 503.687,474.752 504.134,474.752 C 504.415,474.752 504.65,474.872 504.837,475.111 C 505.023,475.351 505.116,475.673 505.116,476.074 L 505.061,476.541 L 500.09,499.123 C 499.953,499.928 499.639,500.607 499.148,501.166 C 498.657,501.723 498.092,502.002 497.456,502.002 L 496.5,502.002 C 496.264,502.002 496.027,501.865 495.79,501.594 C 495.626,501.323 495.545,501.005 495.545,500.643 C 495.545,500.28 495.624,499.963 495.783,499.692 C 495.942,499.42 496.181,499.284 496.5,499.284 L 497.442,499.284 C 497.642,499.284 497.806,499.193 497.933,499.012 C 498.07,498.869 498.179,498.649 498.261,498.351 L 499.286,493.7 z " />
		<path
   id="path32"
   d="M 511.285,468.236 L 510.33,473.715 C 510.221,474.406 509.915,474.752 509.414,474.752 C 509.133,474.752 508.9,474.621 508.718,474.36 C 508.518,474.113 508.418,473.799 508.418,473.422 L 508.459,473.049 L 509.414,467.57 C 509.523,466.879 509.828,466.533 510.33,466.533 C 510.602,466.533 510.83,466.664 511.013,466.925 C 511.222,467.16 511.326,467.479 511.326,467.883 L 511.285,468.236 z " />
	</g><g
   id="g34">
		<path
   id="path36"
   d="M 325.964,37.112 L 319.314,51.362 L 325.16,51.362 C 325.424,51.362 325.648,51.501 325.836,51.779 C 326.022,52.057 326.115,52.371 326.115,52.721 C 326.115,53.032 326.035,53.336 325.877,53.634 C 325.717,53.932 325.479,54.08 325.16,54.08 L 317.512,54.08 C 316.802,54.08 316.448,53.716 316.448,52.988 C 316.448,52.716 316.534,52.371 316.707,51.955 L 323.358,37.705 L 317.512,37.705 C 317.221,37.705 316.985,37.576 316.802,37.317 C 316.638,37.045 316.557,36.721 316.557,36.346 C 316.557,36.023 316.641,35.715 316.809,35.424 C 316.977,35.133 317.211,34.987 317.512,34.987 L 325.16,34.987 C 325.869,34.987 326.224,35.351 326.224,36.079 C 326.224,36.352 326.138,36.696 325.964,37.112 z " />
		<path
   id="path38"
   d="M 332.104,28.471 L 331.149,33.95 C 331.04,34.641 330.734,34.987 330.233,34.987 C 329.952,34.987 329.719,34.857 329.537,34.595 C 329.337,34.347 329.237,34.034 329.237,33.656 L 329.278,33.284 L 330.233,27.805 C 330.342,27.114 330.647,26.768 331.149,26.768 C 331.421,26.768 331.649,26.899 331.832,27.16 C 332.041,27.395 332.145,27.714 332.145,28.118 L 332.104,28.471 z " />
	</g><line
   id="line40"
   y2="268.33899"
   x2="451.793"
   y1="297.638"
   x1="458.17099"
   style="fill:none;stroke:black;stroke-width:1.19055;stroke-linecap:round;stroke-linejoin:round;stroke-miterlimit:100;stroke-dasharray:none" /><line
   id="line42"
   y2="270.97501"
   x2="455.94101"
   y1="268.33899"
   x1="451.793"
   style="fill:none;stroke:black;stroke-width:1.19055;stroke-linecap:round;stroke-linejoin:round;stroke-miterlimit:100;stroke-dasharray:none" /><line
   id="line44"
   y2="267.68701"
   x2="459.595"
   y1="270.97501"
   x1="455.94101"
   style="fill:none;stroke:black;stroke-width:1.19055;stroke-linecap:round;stroke-linejoin:round;stroke-miterlimit:100;stroke-dasharray:none" /><line
   id="line46"
   y2="297.638"
   x2="458.17099"
   y1="267.68701"
   x1="459.595"
   style="fill:none;stroke:black;stroke-width:1.19055;stroke-linecap:round;stroke-linejoin:round;stroke-miterlimit:100;stroke-dasharray:none" /><polygon
   id="polygon48"
   points="458.171,297.638 455.941,270.975 458.171,297.638 451.793,268.339 458.171,297.638 "
   style="fill-rule:evenodd;stroke:black;stroke-width:1.19055;stroke-linecap:round;stroke-linejoin:round;stroke-miterlimit:100;stroke-dasharray:none" /><polygon
   id="polygon50"
   points="458.171,297.638 459.595,267.687 458.171,297.638 455.941,270.975 458.171,297.638 "
   style="fill-rule:evenodd;stroke:black;stroke-width:1.19055;stroke-linecap:round;stroke-linejoin:round;stroke-miterlimit:100;stroke-dasharray:none" /><line
   id="line52"
   y2="135.68201"
   x2="327.59"
   y1="137.104"
   x1="297.638"
   style="fill:none;stroke:black;stroke-width:1.19055;stroke-linecap:round;stroke-linejoin:round;stroke-miterlimit:100;stroke-dasharray:none" /><line
   id="line54"
   y2="139.334"
   x2="324.30099"
   y1="135.68201"
   x1="327.59"
   style="fill:none;stroke:black;stroke-width:1.19055;stroke-linecap:round;stroke-linejoin:round;stroke-miterlimit:100;stroke-dasharray:none" /><line
   id="line56"
   y2="143.48199"
   x2="326.93701"
   y1="139.334"
   x1="324.30099"
   style="fill:none;stroke:black;stroke-width:1.19055;stroke-linecap:round;stroke-linejoin:round;stroke-miterlimit:100;stroke-dasharray:none" /><line
   id="line58"
   y2="137.104"
   x2="297.638"
   y1="143.48199"
   x1="326.93701"
   style="fill:none;stroke:black;stroke-width:1.19055;stroke-linecap:round;stroke-linejoin:round;stroke-miterlimit:100;stroke-dasharray:none" /><polygon
   id="polygon60"
   points="324.301,139.334 327.59,135.682 324.301,139.334 297.638,137.104 324.301,139.334 "
   style="fill-rule:evenodd;stroke:black;stroke-width:1.19055;stroke-linecap:round;stroke-linejoin:round;stroke-miterlimit:100;stroke-dasharray:none" /><polygon
   id="polygon62"
   points="326.937,143.482 324.301,139.334 326.937,143.482 297.638,137.104 326.937,143.482 "
   style="fill-rule:evenodd;stroke:black;stroke-width:1.19055;stroke-linecap:round;stroke-linejoin:round;stroke-miterlimit:100;stroke-dasharray:none" /><path
   id="path64"
   d="M 458.171,297.638 C 458.171,208.978 386.298,137.105 297.638,137.105"
   style="fill:none;stroke:black;stroke-width:1.19055;stroke-linecap:round;stroke-linejoin:round;stroke-miterlimit:100;stroke-dasharray:none" /><g
   id="g66">
		<path
   id="path68"
   d="M 417.479,157.626 L 415.036,155.183 C 414.308,154.456 414.049,153.451 414.255,152.169 C 414.462,150.887 415.108,149.705 416.193,148.62 L 420.052,144.761 C 421.117,143.695 422.291,143.049 423.573,142.823 C 424.853,142.597 425.869,142.858 426.616,143.605 L 427.969,144.957 C 428.722,145.71 428.984,146.728 428.755,148.006 C 428.526,149.285 427.877,150.458 426.811,151.524 L 421.997,156.338 C 420.14,158.196 418.156,159.689 416.049,160.818 C 414.488,161.668 412.925,162.238 411.356,162.526 C 409.786,162.814 408.325,162.778 406.972,162.418 L 406.599,162.211 C 406.445,162.056 406.402,161.806 406.47,161.461 C 406.538,161.115 406.701,160.814 406.959,160.555 C 407.115,160.399 407.297,160.276 407.502,160.186 C 407.707,160.097 407.945,160.077 408.217,160.128 C 408.752,160.276 409.305,160.359 409.877,160.379 C 410.45,160.399 411.073,160.342 411.749,160.207 C 412.987,159.973 414.264,159.509 415.576,158.813 L 416.492,158.265 L 417.479,157.626 z M 419.649,155.952 L 420.11,155.53 L 420.635,155.005 L 425.468,150.171 C 426.012,149.628 426.342,149.042 426.46,148.415 C 426.578,147.787 426.439,147.276 426.046,146.882 L 424.692,145.528 C 424.311,145.147 423.804,145.008 423.171,145.112 C 422.858,145.167 422.551,145.279 422.252,145.45 C 421.953,145.621 421.669,145.839 421.402,146.106 L 417.535,149.973 C 416.992,150.516 416.661,151.106 416.542,151.742 C 416.513,152.044 416.52,152.327 416.565,152.594 C 416.666,152.88 416.798,153.104 416.96,153.265 L 419.649,155.952 z " />
		<path
   id="path70"
   d="M 425.073,172.19 C 423.923,173.339 422.638,174.046 421.221,174.312 C 419.803,174.577 418.679,174.294 417.849,173.464 L 417.036,172.652 C 416.231,171.847 415.943,170.741 416.173,169.333 C 416.402,167.925 417.114,166.624 418.311,165.428 L 429.125,154.613 C 430.257,153.482 431.537,152.781 432.968,152.51 C 434.398,152.239 435.525,152.515 436.349,153.339 L 437.162,154.151 C 437.967,154.956 438.252,156.064 438.018,157.477 C 437.784,158.889 437.074,160.189 435.887,161.375 L 425.073,172.19 z M 423.719,170.849 L 434.546,160.021 C 435.182,159.386 435.57,158.684 435.713,157.915 C 435.856,157.145 435.698,156.532 435.24,156.075 L 434.427,155.262 C 433.982,154.817 433.373,154.66 432.604,154.792 C 431.833,154.923 431.125,155.312 430.481,155.956 L 419.654,166.784 C 419.018,167.419 418.631,168.123 418.491,168.895 C 418.352,169.667 418.508,170.279 418.96,170.73 L 419.773,171.543 C 420.211,171.981 420.813,172.142 421.578,172.022 C 422.342,171.902 423.056,171.512 423.719,170.849 z " />
		<path
   id="path72"
   d="M 447.103,159.452 C 447.648,159.996 447.833,160.745 447.663,161.698 C 447.491,162.651 447.015,163.519 446.231,164.302 C 445.447,165.086 444.579,165.563 443.626,165.734 C 442.674,165.905 441.925,165.719 441.381,165.175 C 441.016,164.81 440.812,164.348 440.769,163.789 C 440.726,163.23 440.832,162.644 441.085,162.032 C 441.338,161.42 441.729,160.851 442.254,160.325 C 443.037,159.542 443.904,159.064 444.858,158.893 C 445.81,158.721 446.559,158.908 447.103,159.452 z M 445.645,160.911 C 445.359,160.625 444.989,160.521 444.534,160.599 C 444.079,160.676 443.649,160.917 443.245,161.322 C 442.849,161.718 442.616,162.141 442.547,162.595 C 442.477,163.049 442.582,163.415 442.861,163.695 C 443.044,163.877 443.27,163.985 443.543,164.018 C 443.814,164.051 444.101,164.006 444.399,163.883 C 444.698,163.759 444.976,163.569 445.234,163.311 C 445.426,163.119 445.587,162.906 445.713,162.675 C 445.839,162.444 445.921,162.225 445.956,162.022 C 445.991,161.819 445.981,161.616 445.929,161.417 C 445.876,161.215 445.781,161.047 445.645,160.911 z " />
	</g><line
   id="line74"
   y2="327.58899"
   x2="459.595"
   y1="297.638"
   x1="458.17099"
   style="fill:none;stroke:black;stroke-width:1.19055;stroke-linecap:round;stroke-linejoin:round;stroke-miterlimit:100;stroke-dasharray:none" /><line
   id="line76"
   y2="324.29999"
   x2="455.94101"
   y1="327.58899"
   x1="459.595"
   style="fill:none;stroke:black;stroke-width:1.19055;stroke-linecap:round;stroke-linejoin:round;stroke-miterlimit:100;stroke-dasharray:none" /><line
   id="line78"
   y2="326.93701"
   x2="451.793"
   y1="324.29999"
   x1="455.94101"
   style="fill:none;stroke:black;stroke-width:1.19055;stroke-linecap:round;stroke-linejoin:round;stroke-miterlimit:100;stroke-dasharray:none" /><line
   id="line80"
   y2="297.638"
   x2="458.17099"
   y1="326.93701"
   x1="451.793"
   style="fill:none;stroke:black;stroke-width:1.19055;stroke-linecap:round;stroke-linejoin:round;stroke-miterlimit:100;stroke-dasharray:none" /><polygon
   id="polygon82"
   points="459.595,327.589 458.171,297.638 459.595,327.589 455.941,324.3 459.595,327.589 "
   style="fill-rule:evenodd;stroke:black;stroke-width:1.19055;stroke-linecap:round;stroke-linejoin:round;stroke-miterlimit:100;stroke-dasharray:none" /><polygon
   id="polygon84"
   points="455.941,324.3 458.171,297.638 455.941,324.3 451.793,326.937 455.941,324.3 "
   style="fill-rule:evenodd;stroke:black;stroke-width:1.19055;stroke-linecap:round;stroke-linejoin:round;stroke-miterlimit:100;stroke-dasharray:none" /><line
   id="line86"
   y2="385.92499"
   x2="427.35999"
   y1="411.151"
   x1="411.15201"
   style="fill:none;stroke:black;stroke-width:1.19055;stroke-linecap:round;stroke-linejoin:round;stroke-miterlimit:100;stroke-dasharray:none" /><line
   id="line88"
   y2="390.72198"
   x2="428.42899"
   y1="385.92499"
   x1="427.35999"
   style="fill:none;stroke:black;stroke-width:1.19055;stroke-linecap:round;stroke-linejoin:round;stroke-miterlimit:100;stroke-dasharray:none" /><line
   id="line90"
   y2="390.979"
   x2="433.33701"
   y1="390.72198"
   x1="428.42899"
   style="fill:none;stroke:black;stroke-width:1.19055;stroke-linecap:round;stroke-linejoin:round;stroke-miterlimit:100;stroke-dasharray:none" /><line
   id="line92"
   y2="411.151"
   x2="411.15201"
   y1="390.979"
   x1="433.33701"
   style="fill:none;stroke:black;stroke-width:1.19055;stroke-linecap:round;stroke-linejoin:round;stroke-miterlimit:100;stroke-dasharray:none" /><polygon
   id="polygon94"
   points="411.152,411.151 428.429,390.722 411.152,411.151 427.36,385.925 411.152,411.151 "
   style="fill-rule:evenodd;stroke:black;stroke-width:1.19055;stroke-linecap:round;stroke-linejoin:round;stroke-miterlimit:100;stroke-dasharray:none" /><polygon
   id="polygon96"
   points="411.152,411.151 433.337,390.979 411.152,411.151 428.429,390.722 411.152,411.151 "
   style="fill-rule:evenodd;stroke:black;stroke-width:1.19055;stroke-linecap:round;stroke-linejoin:round;stroke-miterlimit:100;stroke-dasharray:none" /><path
   id="path98"
   d="M 411.152,411.151 C 441.257,381.046 458.171,340.213 458.171,297.637"
   style="fill:none;stroke:black;stroke-width:1.19055;stroke-linecap:round;stroke-linejoin:round;stroke-miterlimit:100;stroke-dasharray:none" /><g
   id="g100">
		<path
   id="path102"
   d="M 423.245,356.727 L 423.973,354.971 C 424.074,354.728 424.288,354.575 424.616,354.509 C 424.945,354.445 425.27,354.479 425.593,354.613 C 425.881,354.732 426.131,354.922 426.346,355.182 C 426.561,355.442 426.607,355.718 426.486,356.011 L 425.758,357.768 L 429.526,359.329 C 429.921,359.492 430.203,359.708 430.373,359.975 C 430.51,360.219 430.525,360.47 430.418,360.73 C 430.32,360.965 430.13,361.127 429.848,361.216 C 429.566,361.306 429.216,361.264 428.797,361.09 L 425.029,359.529 L 422.826,364.848 C 422.571,365.462 422.104,365.627 421.422,365.345 L 421.126,365.193 L 420.858,365.023 L 404.65,354.17 C 404.419,354.016 404.231,353.819 404.088,353.583 L 404.03,353.367 C 404,353.236 404.01,353.107 404.062,352.981 C 404.17,352.72 404.379,352.555 404.691,352.487 C 404.996,352.397 405.329,352.426 405.69,352.576 L 406.053,352.771 L 420.793,362.646 L 422.516,358.488 L 418.726,356.918 C 418.39,356.779 418.114,356.562 417.898,356.266 C 417.754,356 417.731,355.75 417.829,355.515 C 417.923,355.288 418.112,355.129 418.397,355.036 C 418.681,354.943 419.035,354.983 419.456,355.158 L 423.245,356.727 z " />
		<path
   id="path104"
   d="M 411.341,342.513 L 418.934,345.659 L 420.033,343.006 C 420.532,341.803 421.577,341.02 423.169,340.657 C 424.761,340.296 426.428,340.475 428.169,341.196 L 430.69,342.24 C 432.408,342.952 433.708,343.999 434.591,345.38 C 435.474,346.761 435.665,348.058 435.164,349.27 L 433.7,352.803 C 433.588,353.073 433.378,353.241 433.07,353.311 C 432.756,353.359 432.425,353.311 432.078,353.166 C 431.779,353.043 431.527,352.848 431.322,352.579 C 431.118,352.312 431.073,352.04 431.188,351.762 L 432.653,348.226 C 432.953,347.501 432.85,346.729 432.344,345.908 C 431.839,345.087 431.044,344.452 429.962,344.004 L 427.436,342.958 C 426.389,342.524 425.39,342.409 424.44,342.611 C 423.489,342.815 422.858,343.291 422.548,344.04 L 421.082,347.577 C 420.838,348.167 420.296,348.287 419.454,347.938 L 409.361,343.757 C 408.52,343.409 408.221,342.941 408.465,342.352 L 411.392,335.284 C 411.494,335.04 411.708,334.886 412.037,334.819 C 412.366,334.754 412.691,334.787 413.015,334.921 C 413.303,335.04 413.553,335.231 413.767,335.491 C 413.981,335.753 414.027,336.031 413.905,336.325 L 411.341,342.513 z " />
		<path
   id="path106"
   d="M 411.242,327.072 C 411.536,326.361 412.156,325.903 413.102,325.696 C 414.048,325.49 415.034,325.598 416.056,326.022 C 417.08,326.447 417.854,327.066 418.376,327.88 C 418.898,328.695 419.013,329.458 418.719,330.169 C 418.521,330.647 418.172,331.011 417.672,331.265 C 417.172,331.519 416.59,331.646 415.928,331.646 C 415.265,331.646 414.59,331.503 413.904,331.219 C 412.881,330.795 412.107,330.176 411.584,329.361 C 411.062,328.547 410.947,327.784 411.242,327.072 z M 413.147,327.861 C 412.993,328.235 413.038,328.617 413.285,329.007 C 413.531,329.398 413.918,329.702 414.446,329.921 C 414.963,330.135 415.444,330.188 415.889,330.078 C 416.335,329.97 416.633,329.733 416.785,329.367 C 416.884,329.13 416.895,328.879 416.823,328.615 C 416.749,328.35 416.598,328.103 416.37,327.875 C 416.141,327.646 415.859,327.462 415.522,327.322 C 415.27,327.218 415.012,327.151 414.751,327.122 C 414.489,327.094 414.257,327.101 414.055,327.147 C 413.854,327.193 413.671,327.279 413.506,327.405 C 413.34,327.531 413.222,327.684 413.147,327.861 z " />
	</g><line
   id="line108"
   y2="433.33701"
   x2="390.979"
   y1="411.151"
   x1="411.15201"
   style="fill:none;stroke:black;stroke-width:1.19055;stroke-linecap:round;stroke-linejoin:round;stroke-miterlimit:100;stroke-dasharray:none" /><line
   id="line110"
   y2="428.42899"
   x2="390.72299"
   y1="433.33701"
   x1="390.979"
   style="fill:none;stroke:black;stroke-width:1.19055;stroke-linecap:round;stroke-linejoin:round;stroke-miterlimit:100;stroke-dasharray:none" /><line
   id="line112"
   y2="427.35999"
   x2="385.92499"
   y1="428.42899"
   x1="390.72299"
   style="fill:none;stroke:black;stroke-width:1.19055;stroke-linecap:round;stroke-linejoin:round;stroke-miterlimit:100;stroke-dasharray:none" /><line
   id="line114"
   y2="411.151"
   x2="411.15201"
   y1="427.35999"
   x1="385.92499"
   style="fill:none;stroke:black;stroke-width:1.19055;stroke-linecap:round;stroke-linejoin:round;stroke-miterlimit:100;stroke-dasharray:none" /><polygon
   id="polygon116"
   points="390.979,433.337 411.152,411.151 390.979,433.337 390.723,428.429 390.979,433.337 "
   style="fill-rule:evenodd;stroke:black;stroke-width:1.19055;stroke-linecap:round;stroke-linejoin:round;stroke-miterlimit:100;stroke-dasharray:none" /><polygon
   id="polygon118"
   points="390.723,428.429 411.152,411.151 390.723,428.429 385.925,427.36 390.723,428.429 "
   style="fill-rule:evenodd;stroke:black;stroke-width:1.19055;stroke-linecap:round;stroke-linejoin:round;stroke-miterlimit:100;stroke-dasharray:none" /><line
   id="line120"
   y2="326.93701"
   x2="143.48199"
   y1="297.638"
   x1="137.105"
   style="fill:none;stroke:black;stroke-width:1.19055;stroke-linecap:round;stroke-linejoin:round;stroke-miterlimit:100;stroke-dasharray:none" /><line
   id="line122"
   y2="324.29999"
   x2="139.334"
   y1="326.93701"
   x1="143.48199"
   style="fill:none;stroke:black;stroke-width:1.19055;stroke-linecap:round;stroke-linejoin:round;stroke-miterlimit:100;stroke-dasharray:none" /><line
   id="line124"
   y2="327.58899"
   x2="135.68201"
   y1="324.29999"
   x1="139.334"
   style="fill:none;stroke:black;stroke-width:1.19055;stroke-linecap:round;stroke-linejoin:round;stroke-miterlimit:100;stroke-dasharray:none" /><line
   id="line126"
   y2="297.638"
   x2="137.105"
   y1="327.58899"
   x1="135.68201"
   style="fill:none;stroke:black;stroke-width:1.19055;stroke-linecap:round;stroke-linejoin:round;stroke-miterlimit:100;stroke-dasharray:none" /><polygon
   id="polygon128"
   points="143.482,326.937 137.105,297.638 143.482,326.937 139.334,324.3 143.482,326.937 "
   style="fill-rule:evenodd;stroke:black;stroke-width:1.19055;stroke-linecap:round;stroke-linejoin:round;stroke-miterlimit:100;stroke-dasharray:none" /><polygon
   id="polygon130"
   points="139.334,324.3 137.105,297.638 139.334,324.3 135.682,327.589 139.334,324.3 "
   style="fill-rule:evenodd;stroke:black;stroke-width:1.19055;stroke-linecap:round;stroke-linejoin:round;stroke-miterlimit:100;stroke-dasharray:none" /><path
   id="path132"
   d="M 137.105,297.638 C 137.105,386.298 208.978,458.171 297.638,458.171 C 340.214,458.171 381.046,441.258 411.153,411.151"
   style="fill:none;stroke:black;stroke-width:1.19055;stroke-linecap:round;stroke-linejoin:round;stroke-miterlimit:100;stroke-dasharray:none" /><g
   id="g134">
		<path
   id="path136"
   d="M 227.107,428.144 C 226.942,428.541 226.726,428.826 226.459,428.997 C 226.214,429.136 225.963,429.151 225.703,429.043 C 225.468,428.946 225.306,428.756 225.216,428.473 C 225.128,428.19 225.17,427.838 225.345,427.417 L 233.497,407.734 L 230.256,409.792 C 229.974,409.971 229.719,410.013 229.491,409.918 C 229.28,409.831 229.126,409.619 229.029,409.282 C 228.953,408.939 228.985,408.599 229.125,408.261 C 229.245,407.972 229.453,407.719 229.75,407.502 L 235.387,403.902 C 235.575,403.782 235.753,403.698 235.922,403.647 C 236.09,403.597 236.251,403.603 236.402,403.666 C 236.545,403.726 236.661,403.921 236.75,404.254 C 236.783,404.578 236.708,404.963 236.524,405.408 L 227.107,428.144 z " />
		<path
   id="path138"
   d="M 243.831,409.965 L 240.3,408.502 C 240.03,408.391 239.861,408.18 239.792,407.871 C 239.745,407.558 239.793,407.227 239.938,406.881 C 240.062,406.582 240.257,406.33 240.524,406.125 C 240.791,405.921 241.063,405.875 241.341,405.99 L 244.875,407.454 C 246.254,408.025 247.09,409.125 247.383,410.752 C 247.626,412.259 247.397,413.86 246.695,415.553 C 246.269,416.574 245.738,417.451 245.104,418.188 C 244.469,418.923 243.72,419.514 242.856,419.958 C 243.115,420.713 243.226,421.6 243.189,422.618 C 243.151,423.637 242.924,424.651 242.509,425.661 L 241.464,428.183 C 240.753,429.901 239.706,431.202 238.324,432.086 C 236.943,432.97 235.646,433.161 234.434,432.659 L 230.9,431.195 C 230.631,431.084 230.459,430.879 230.385,430.582 C 230.347,430.245 230.398,429.908 230.536,429.573 C 230.655,429.286 230.845,429.035 231.106,428.821 C 231.367,428.607 231.645,428.561 231.94,428.683 L 235.477,430.148 C 236.209,430.452 236.988,430.34 237.812,429.815 C 238.637,429.29 239.266,428.504 239.699,427.458 L 240.745,424.932 C 241.174,423.898 241.287,422.902 241.087,421.945 C 240.885,420.988 240.411,420.354 239.661,420.044 L 237.891,419.312 C 237.621,419.2 237.449,418.996 237.375,418.699 C 237.337,418.361 237.388,418.025 237.526,417.689 C 237.645,417.403 237.835,417.152 238.096,416.938 C 238.357,416.723 238.634,416.677 238.929,416.799 L 240.695,417.53 C 241.477,417.853 242.287,417.718 243.125,417.12 C 243.853,416.575 244.434,415.779 244.868,414.732 C 245.292,413.709 245.436,412.775 245.304,411.93 C 245.154,410.965 244.663,410.31 243.831,409.965 z " />
		<path
   id="path140"
   d="M 253.64,413.994 L 250.494,421.587 L 253.147,422.687 C 254.351,423.185 255.134,424.231 255.496,425.822 C 255.858,427.414 255.678,429.081 254.957,430.821 L 253.913,433.343 C 253.202,435.06 252.155,436.36 250.774,437.243 C 249.393,438.127 248.096,438.318 246.884,437.816 L 243.35,436.352 C 243.081,436.241 242.912,436.03 242.843,435.721 C 242.795,435.408 242.843,435.076 242.987,434.73 C 243.111,434.431 243.306,434.179 243.574,433.974 C 243.841,433.77 244.114,433.725 244.391,433.84 L 247.928,435.305 C 248.652,435.605 249.424,435.502 250.246,434.996 C 251.067,434.491 251.702,433.697 252.15,432.614 L 253.196,430.088 C 253.629,429.041 253.744,428.042 253.542,427.092 C 253.338,426.141 252.863,425.511 252.113,425.2 L 248.576,423.735 C 247.987,423.491 247.866,422.948 248.215,422.106 L 252.396,412.013 C 252.745,411.172 253.213,410.873 253.802,411.117 L 260.87,414.045 C 261.114,414.146 261.269,414.36 261.334,414.689 C 261.4,415.018 261.366,415.343 261.232,415.667 C 261.113,415.954 260.923,416.205 260.662,416.419 C 260.4,416.633 260.123,416.679 259.828,416.557 L 253.64,413.994 z " />
		<path
   id="path142"
   d="M 269.081,413.896 C 269.792,414.191 270.25,414.811 270.457,415.757 C 270.664,416.702 270.555,417.688 270.131,418.711 C 269.707,419.734 269.088,420.508 268.273,421.03 C 267.458,421.553 266.695,421.668 265.984,421.373 C 265.506,421.176 265.141,420.827 264.888,420.327 C 264.634,419.827 264.507,419.245 264.508,418.582 C 264.508,417.919 264.65,417.245 264.934,416.558 C 265.358,415.536 265.976,414.761 266.791,414.239 C 267.605,413.716 268.37,413.601 269.081,413.896 z M 268.292,415.801 C 267.918,415.647 267.536,415.693 267.146,415.939 C 266.755,416.185 266.451,416.572 266.232,417.1 C 266.018,417.617 265.964,418.098 266.074,418.543 C 266.183,418.989 266.42,419.287 266.785,419.439 C 267.023,419.538 267.274,419.55 267.538,419.477 C 267.802,419.404 268.048,419.252 268.278,419.024 C 268.506,418.795 268.691,418.513 268.83,418.176 C 268.934,417.925 269.001,417.667 269.03,417.405 C 269.059,417.142 269.05,416.91 269.005,416.708 C 268.96,416.507 268.874,416.323 268.748,416.159 C 268.622,415.994 268.47,415.875 268.292,415.801 z " />
	</g>
<line
   id="line145"
   y2="30.083"
   x2="297.638"
   y1="297.638"
   x1="297.638"
   style="fill:none;stroke:blue;stroke-width:2.04094291;stroke-linecap:round;stroke-linejoin:round;stroke-miterlimit:100;stroke-dasharray:none" /><line
   id="line147"
   y2="486.828"
   x2="486.828"
   y1="297.638"
   x1="297.638"
   style="fill:none;stroke:blue;stroke-width:2.04094291;stroke-linecap:round;stroke-linejoin:round;stroke-miterlimit:100;stroke-dasharray:none" /><line
   id="line149"
   y2="297.638"
   x2="30.083"
   y1="297.638"
   x1="297.638"
   style="fill:none;stroke:blue;stroke-width:2.04094291;stroke-linecap:round;stroke-linejoin:round;stroke-miterlimit:100;stroke-dasharray:none" /><line
   id="line151"
   y2="293.724"
   x2="59.811001"
   y1="297.638"
   x1="30.083"
   style="fill:none;stroke:blue;stroke-width:1.19055;stroke-linecap:round;stroke-linejoin:round;stroke-miterlimit:100;stroke-dasharray:none" /><line
   id="line153"
   y2="297.638"
   x2="56.838001"
   y1="293.724"
   x1="59.811001"
   style="fill:none;stroke:blue;stroke-width:1.19055;stroke-linecap:round;stroke-linejoin:round;stroke-miterlimit:100;stroke-dasharray:none" /><line
   id="line155"
   y2="301.552"
   x2="59.811001"
   y1="297.638"
   x1="56.838001"
   style="fill:none;stroke:blue;stroke-width:1.19055;stroke-linecap:round;stroke-linejoin:round;stroke-miterlimit:100;stroke-dasharray:none" /><line
   id="line157"
   y2="297.638"
   x2="30.083"
   y1="301.552"
   x1="59.811001"
   style="fill:none;stroke:blue;stroke-width:1.19055;stroke-linecap:round;stroke-linejoin:round;stroke-miterlimit:100;stroke-dasharray:none" /><polygon
   id="polygon159"
   points="56.838,297.638 59.811,293.724 56.838,297.638 30.083,297.638 56.838,297.638 "
   style="fill-rule:evenodd;stroke:blue;stroke-width:1.19055;stroke-linecap:round;stroke-linejoin:round;stroke-miterlimit:100;stroke-dasharray:none" /><polygon
   id="polygon161"
   points="59.811,301.552 56.838,297.638 59.811,301.552 30.083,297.638 59.811,301.552 "
   style="fill-rule:evenodd;stroke:blue;stroke-width:1.19055;stroke-linecap:round;stroke-linejoin:round;stroke-miterlimit:100;stroke-dasharray:none" /><line
   id="line163"
   y2="468.57401"
   x2="463.039"
   y1="486.828"
   x1="486.828"
   style="fill:none;stroke:blue;stroke-width:1.19054997;stroke-linecap:round;stroke-linejoin:round;stroke-miterlimit:100;stroke-dasharray:none" /><line
   id="line165"
   y2="467.909"
   x2="467.90799"
   y1="468.57401"
   x1="463.039"
   style="fill:none;stroke:blue;stroke-width:1.19054997;stroke-linecap:round;stroke-linejoin:round;stroke-miterlimit:100;stroke-dasharray:none" /><line
   id="line167"
   y2="463.039"
   x2="468.57501"
   y1="467.909"
   x1="467.90799"
   style="fill:none;stroke:blue;stroke-width:1.19054997;stroke-linecap:round;stroke-linejoin:round;stroke-miterlimit:100;stroke-dasharray:none" /><line
   id="line169"
   y2="486.828"
   x2="486.828"
   y1="463.039"
   x1="468.57501"
   style="fill:none;stroke:blue;stroke-width:1.19054997;stroke-linecap:round;stroke-linejoin:round;stroke-miterlimit:100;stroke-dasharray:none" /><polygon
   id="polygon171"
   points="486.828,486.828 467.908,467.909 486.828,486.828 463.039,468.574 486.828,486.828 "
   style="fill-rule:evenodd;stroke:blue;stroke-width:1.19054997;stroke-linecap:round;stroke-linejoin:round;stroke-miterlimit:100;stroke-dasharray:none" /><polygon
   id="polygon173"
   points="486.828,486.828 468.575,463.039 486.828,486.828 467.908,467.909 486.828,486.828 "
   style="fill-rule:evenodd;stroke:blue;stroke-width:1.19054997;stroke-linecap:round;stroke-linejoin:round;stroke-miterlimit:100;stroke-dasharray:none" /><line
   id="line175"
   y2="59.811001"
   x2="301.552"
   y1="30.083"
   x1="297.638"
   style="fill:blue;fill-opacity:1;stroke:blue;stroke-width:1.19054997;stroke-linecap:round;stroke-linejoin:round;stroke-miterlimit:100;stroke-dasharray:none" /><line
   id="line177"
   y2="56.838001"
   x2="297.638"
   y1="59.811001"
   x1="301.552"
   style="fill:blue;fill-opacity:1;stroke:blue;stroke-width:1.19054997;stroke-linecap:round;stroke-linejoin:round;stroke-miterlimit:100;stroke-dasharray:none" /><line
   id="line179"
   y2="59.811001"
   x2="293.724"
   y1="56.838001"
   x1="297.638"
   style="fill:blue;fill-opacity:1;stroke:blue;stroke-width:1.19054997;stroke-linecap:round;stroke-linejoin:round;stroke-miterlimit:100;stroke-dasharray:none" /><line
   id="line181"
   y2="30.083"
   x2="297.638"
   y1="59.811001"
   x1="293.724"
   style="fill:blue;fill-opacity:1;stroke:blue;stroke-width:1.19054997;stroke-linecap:round;stroke-linejoin:round;stroke-miterlimit:100;stroke-dasharray:none" /><polygon
   id="polygon183"
   points="301.552,59.811 297.638,30.083 301.552,59.811 297.638,56.838 301.552,59.811 "
   style="fill:blue;fill-opacity:1;fill-rule:evenodd;stroke:blue;stroke-width:1.19054997;stroke-linecap:round;stroke-linejoin:round;stroke-miterlimit:100;stroke-dasharray:none" /><polygon
   id="polygon185"
   points="297.638,56.838 297.638,30.083 297.638,56.838 293.724,59.811 297.638,56.838 "
   style="fill:blue;fill-opacity:1;fill-rule:evenodd;stroke:blue;stroke-width:1.19054997;stroke-linecap:round;stroke-linejoin:round;stroke-miterlimit:100;stroke-dasharray:none" />
<g
   id="_x30_">
</g>
</svg>