<!-- Created with Inkscape (http://www.inkscape.org/) -->
<svg width="79.375mm" height="118.27mm" version="1.1" viewBox="0 0 79.375 118.27" xml:space="preserve" xmlns="http://www.w3.org/2000/svg"><g fill="#fff" fill-rule="evenodd"><path transform="scale(.26458)" d="m52.368 227.08c0-0.11343 0.03091-0.50516 0.06868-0.87051 0.40299-3.8974 1.4298-7.0575 3.104-9.5529 0.49348-0.73553 0.99646-1.3395 1.6888-2.0279 2.1051-2.0931 4.7378-3.294 7.9737-3.6372 0.6364-0.0675 2.6202-0.0853 3.1814-0.0285l0.27953 0.0283-16.296 16.295z" fill="#fff" fill-rule="evenodd"/><path transform="scale(.26458)" d="m239.54 219.09c-4.4075-4.4084-8.0136-8.0504-8.0136-8.0933 0-0.0434 0.8018-0.058 1.8081-0.0329 1.983 0.0495 3.0783 0.21683 4.5352 0.69292 4.2002 1.3726 7.2764 4.7975 8.7429 9.7337 0.48218 1.6231 1.0638 4.9337 0.9708 5.5256-0.0236 0.15042-1.6728-1.4541-8.0434-7.826z" fill="#fff" fill-rule="evenodd"/><g stroke="#f00" stroke-dashoffset=".37954" stroke-linecap="round" stroke-linejoin="round" stroke-width=".38024"><path d="m1.5716 72.694 43.25 43.25"/><path d="m1.8707 84.784 43.25-43.25"/><path d="m77.803 72.694-43.25 43.25"/><path d="m77.803 84.784-43.25-43.25"/></g><g stroke="#000" stroke-linecap="round" stroke-linejoin="round"><g stroke-dashoffset=".37954"><path d="m13.491 84.613v-23.839l5.7246-5.7246 1e-6 23.839z" stroke-width=".38024"/><g stroke-width=".66542"><path d="m7.7663 34.246v44.642l5.7246 5.7246v-23.839c0-6.5408 5.8935-6.6953 10.242-2.3469 5.2678 5.2678 10.231 16.248 10.169 22.758v23.839l5.7859 5.7859v-44.642"/><path d="m13.491 84.613 5.7246-5.7246v-23.22"/><path d="m65.884 84.613-5.7246-5.7246v-23.22"/></g><path d="m65.884 84.613v-23.839l-5.7246-5.7246-1e-6 23.839z" stroke-width=".38024"/><path d="m71.609 34.246v44.642l-5.7246 5.7246v-23.839c0-6.5408-5.8935-6.6953-10.242-2.3469-5.2678 5.2678-10.231 16.248-10.169 22.758v23.839l-5.7859 5.7859v-44.642" stroke-width=".66542"/></g><path d="m39.688 66.168-31.921-31.921 31.921-31.921 31.921 31.921z" stroke-dashoffset=".10042" stroke-width=".66542"/></g></g></svg>
